<svg width="36" height="30" viewBox="0 0 36 30" fill="none" xmlns="http://www.w3.org/2000/svg" xmlns:xlink="http://www.w3.org/1999/xlink">
<path d="M28.38,22.44C28.68,22.8 29.06,22.98 29.54,23C30,23 30.44,22.8 30.84,22.38C32.16,20.98 33.16,19.34 33.84,17.48C34.52,15.6 34.88,13.62 34.88,11.54C34.88,10.14 34.72,8.8 34.4,7.5C34.08,6.2 33.62,4.96 33.02,3.8C32.42,2.64 31.7,1.62 30.84,0.7C30.44,0.28 30.02,0.06 29.54,0.08C29.08,0.08 28.68,0.28 28.38,0.62C28.1,0.96 27.98,1.32 28.04,1.72C28.1,2.12 28.3,2.5 28.62,2.86C29.64,3.98 30.42,5.3 30.96,6.8C31.5,8.3 31.78,9.88 31.78,11.56C31.78,13.24 31.5,14.82 30.96,16.32C30.42,17.82 29.64,19.12 28.62,20.26C28.3,20.62 28.1,21 28.04,21.4C27.98,21.8 28.08,22.16 28.38,22.5L28.38,22.44ZM23.52,17.84C23.82,18.2 24.2,18.38 24.7,18.38C25.18,18.38 25.6,18.18 25.96,17.76C26.64,16.96 27.16,16.02 27.52,14.94C27.88,13.86 28.08,12.72 28.08,11.54C28.08,10.36 27.9,9.22 27.52,8.14C27.16,7.06 26.64,6.12 25.96,5.32C25.6,4.9 25.18,4.68 24.7,4.68C24.22,4.68 23.82,4.86 23.52,5.22C23.24,5.56 23.14,5.9 23.2,6.3C23.26,6.68 23.44,7.06 23.7,7.44C24.1,7.98 24.4,8.6 24.64,9.32C24.88,10.04 24.98,10.78 24.98,11.54C24.98,12.3 24.86,13.04 24.64,13.76C24.42,14.48 24.1,15.12 23.68,15.64C23.42,16.02 23.24,16.4 23.18,16.78C23.12,17.16 23.22,17.52 23.5,17.86L23.52,17.84ZM14.26,11.52C14.26,12.14 14.42,12.68 14.74,13.18C15.06,13.68 15.46,14.06 15.98,14.32L15.98,28.08C15.98,28.56 16.12,28.96 16.4,29.26C16.68,29.56 17.02,29.72 17.46,29.72C17.9,29.72 18.26,29.58 18.54,29.28C18.8,28.98 18.94,28.58 18.94,28.08L18.94,14.32C19.44,14.06 19.84,13.68 20.16,13.18C20.48,12.68 20.64,12.12 20.64,11.52C20.64,10.92 20.5,10.4 20.22,9.92C19.94,9.44 19.56,9.06 19.08,8.76C18.6,8.48 18.06,8.32 17.48,8.32C16.9,8.32 16.36,8.46 15.88,8.76C15.4,9.04 15.02,9.44 14.74,9.92C14.46,10.4 14.32,10.94 14.32,11.52L14.26,11.52ZM6.78,11.52C6.78,12.72 6.96,13.84 7.34,14.92C7.7,16 8.22,16.94 8.9,17.74C9.26,18.16 9.68,18.36 10.16,18.36C10.64,18.36 11.04,18.18 11.34,17.82C11.62,17.48 11.72,17.14 11.66,16.74C11.6,16.36 11.42,15.98 11.16,15.6C10.76,15.08 10.44,14.46 10.2,13.72C9.96,12.98 9.86,12.26 9.86,11.5C9.86,10.74 9.98,10 10.2,9.28C10.44,8.56 10.74,7.92 11.14,7.4C11.42,7.02 11.58,6.64 11.64,6.26C11.7,5.88 11.6,5.52 11.32,5.18C11.02,4.82 10.64,4.64 10.14,4.64C9.66,4.64 9.24,4.84 8.88,5.28C8.2,6.08 7.68,7.02 7.32,8.1C6.96,9.18 6.76,10.32 6.76,11.5L6.78,11.52ZM0,11.52C0,13.6 0.34,15.58 1.04,17.46C1.72,19.34 2.72,20.98 4.04,22.36C4.44,22.78 4.88,23 5.34,22.98C5.8,22.98 6.18,22.78 6.48,22.42C6.76,22.08 6.88,21.72 6.82,21.32C6.76,20.92 6.56,20.54 6.24,20.18C5.22,19.06 4.44,17.74 3.9,16.24C3.36,14.74 3.08,13.16 3.08,11.48C3.08,9.8 3.36,8.22 3.9,6.72C4.44,5.22 5.22,3.92 6.24,2.78C6.56,2.42 6.76,2.04 6.82,1.64C6.88,1.24 6.78,0.88 6.48,0.54C6.18,0.18 5.8,0 5.34,0C4.88,0 4.44,0.2 4.04,0.62C3.18,1.54 2.46,2.56 1.86,3.72C1.26,4.88 0.8,6.1 0.48,7.42C0.16,8.72 0,10.08 0,11.46L0,11.52Z" fill="#000000" fill-opacity="0.25"/>
</svg>
