<svg width="72" height="34" viewBox="0 0 72 34" fill="none" xmlns="http://www.w3.org/2000/svg" xmlns:xlink="http://www.w3.org/1999/xlink">
<path d="M12.73,33.316C11.193,33.316 9.806,33.232 8.569,33.064C7.333,32.908 6.222,32.614 5.238,32.181C4.253,31.761 3.359,31.155 2.554,30.363C1.774,29.582 1.174,28.706 0.754,27.733C0.333,26.749 0.039,25.638 -0.129,24.402C-0.285,23.165 -0.363,21.778 -0.363,20.242L-0.363,12.876C-0.363,10.595 -0.171,8.644 0.213,7.023C0.598,5.39 1.384,3.986 2.572,2.809C3.749,1.632 5.16,0.846 6.805,0.45C8.449,0.054 10.4,-0.145 12.658,-0.145L48.964,-0.145C50.5,-0.145 51.887,-0.06 53.124,0.108C54.36,0.264 55.471,0.558 56.455,0.99C57.44,1.41 58.334,2.017 59.139,2.809C59.919,3.589 60.519,4.472 60.939,5.456C61.36,6.429 61.648,7.533 61.804,8.77C61.972,10.007 62.056,11.393 62.056,12.93L62.056,20.242C62.056,21.778 61.972,23.165 61.804,24.402C61.648,25.626 61.36,26.731 60.939,27.715C60.519,28.7 59.919,29.582 59.139,30.363C58.346,31.155 57.452,31.761 56.455,32.181C55.471,32.614 54.36,32.908 53.124,33.064C51.887,33.232 50.5,33.316 48.964,33.316L12.73,33.316ZM12.081,27.985L49.612,27.985C50.86,27.985 51.965,27.877 52.926,27.661C53.886,27.445 54.654,27.043 55.231,26.455C55.795,25.878 56.185,25.122 56.401,24.186C56.617,23.249 56.725,22.15 56.725,20.89L56.725,12.3C56.725,11.027 56.617,9.922 56.401,8.986C56.197,8.05 55.807,7.287 55.231,6.699C54.642,6.123 53.868,5.726 52.908,5.51C51.959,5.294 50.86,5.186 49.612,5.186L12.135,5.186C10.863,5.186 9.74,5.294 8.768,5.51C7.807,5.714 7.039,6.111 6.462,6.699C5.886,7.287 5.49,8.056 5.274,9.004C5.07,9.952 4.968,11.069 4.968,12.354L4.968,20.89C4.968,22.15 5.07,23.249 5.274,24.186C5.49,25.122 5.886,25.878 6.462,26.455C7.051,27.043 7.819,27.445 8.768,27.661C9.716,27.877 10.821,27.985 12.081,27.985ZM65.586,23.159L65.586,10.013C66.258,10.061 66.954,10.361 67.675,10.913C68.407,11.465 69.026,12.228 69.53,13.2C70.046,14.161 70.304,15.289 70.304,16.586C70.304,17.882 70.046,19.017 69.53,19.989C69.026,20.95 68.407,21.712 67.675,22.277C66.954,22.829 66.258,23.123 65.586,23.159Z" fill="#FFFFFF" fill-opacity="0.5"/>
<path d="M9.956,24.708C10.4,24.816 10.965,24.87 11.649,24.87L38.662,24.87C39.359,24.87 39.923,24.816 40.355,24.708C40.787,24.588 41.148,24.384 41.436,24.095C41.724,23.807 41.928,23.447 42.048,23.015C42.168,22.571 42.228,22.006 42.228,21.322L42.228,11.849C42.228,11.165 42.168,10.607 42.048,10.175C41.928,9.73 41.724,9.364 41.436,9.076C41.16,8.8 40.799,8.602 40.355,8.482C39.911,8.362 39.347,8.302 38.662,8.302L11.703,8.302C10.995,8.302 10.412,8.362 9.956,8.482C9.512,8.59 9.152,8.782 8.876,9.058C8.587,9.346 8.383,9.718 8.263,10.175C8.143,10.619 8.083,11.195 8.083,11.903L8.083,21.322C8.083,22.006 8.143,22.571 8.263,23.015C8.383,23.447 8.587,23.807 8.876,24.095C9.164,24.384 9.524,24.588 9.956,24.708Z" fill="#FFFFFF"/>
</svg>
