<svg width="60" height="50" viewBox="0 0 60 50" fill="none" xmlns="http://www.w3.org/2000/svg" xmlns:xlink="http://www.w3.org/1999/xlink">
<path d="M7.924,38.035C5.343,38.035 3.374,37.363 2.017,36.018C0.672,34.673 0,32.722 0,30.165L0,7.852C0,5.295 0.672,3.35 2.017,2.017C3.374,0.672 5.343,0 7.924,0L39.728,0C42.297,0 44.254,0.672 45.599,2.017C46.955,3.362 47.634,5.307 47.634,7.852L47.634,13.201L42.321,13.201L42.321,8.464C42.321,7.396 42.051,6.603 41.511,6.087C40.97,5.571 40.196,5.313 39.188,5.313L8.446,5.313C7.438,5.313 6.663,5.571 6.123,6.087C5.595,6.603 5.331,7.396 5.331,8.464L5.331,29.553C5.331,30.621 5.595,31.414 6.123,31.93C6.663,32.446 7.438,32.704 8.446,32.704L14.353,32.704L14.353,38.035L7.924,38.035Z" fill="#FFFFFF" fill-opacity="0.5"/>
<path d="M19.967,49C17.378,49 15.4,48.328 14.033,46.985C12.678,45.641 12,43.698 12,41.155L12,18.845C12,16.302 12.678,14.359 14.033,13.015C15.4,11.672 17.378,11 19.967,11L52.015,11C54.604,11 56.582,11.672 57.949,13.015C59.316,14.359 60,16.302 60,18.845L60,41.155C60,43.698 59.316,45.641 57.949,46.985C56.582,48.328 54.604,49 52.015,49L19.967,49ZM20.511,43.674L51.489,43.674C52.505,43.674 53.279,43.416 53.812,42.901C54.356,42.385 54.628,41.599 54.628,40.544L54.628,19.474C54.628,18.407 54.356,17.615 53.812,17.099C53.279,16.584 52.505,16.326 51.489,16.326L20.511,16.326C19.483,16.326 18.702,16.584 18.17,17.099C17.638,17.615 17.372,18.407 17.372,19.474L17.372,40.544C17.372,41.599 17.638,42.385 18.17,42.901C18.702,43.416 19.483,43.674 20.511,43.674Z" fill="#FFFFFF"/>
</svg>
