<svg width="32" height="32" viewBox="0 0 32 32" fill="none" xmlns="http://www.w3.org/2000/svg" xmlns:xlink="http://www.w3.org/1999/xlink">
<path d="M16,32C18.199,32 20.26,31.588 22.184,30.744C24.108,29.919 25.816,28.761 27.288,27.288C28.761,25.816 29.919,24.108 30.744,22.184C31.588,20.26 32,18.199 32,16C32,13.801 31.588,11.74 30.744,9.816C29.899,7.892 28.761,6.184 27.288,4.712C25.816,3.239 24.108,2.081 22.184,1.256C20.26,0.432 18.179,0 16,0C13.821,0 11.76,0.412 9.816,1.256C7.892,2.081 6.184,3.239 4.712,4.712C3.239,6.184 2.101,7.892 1.256,9.816C0.432,11.74 0,13.801 0,16C0,18.199 0.412,20.26 1.256,22.184C2.081,24.108 3.239,25.816 4.712,27.288C6.184,28.761 7.892,29.919 9.816,30.744C11.74,31.568 13.801,32 16,32Z" fill="#000000" fill-opacity="0.25"/>
</svg>
