<svg width="32" height="30" viewBox="0 0 32 30" fill="none" xmlns="http://www.w3.org/2000/svg" xmlns:xlink="http://www.w3.org/1999/xlink">
<path d="M16.01,29.64C16.23,29.64 16.51,29.56 16.811,29.42C17.111,29.26 17.411,29.1 17.711,28.92C20.613,27.04 23.114,25.08 25.256,23C27.397,20.92 29.058,18.8 30.239,16.6C31.42,14.4 32,12.2 32,9.96C32,8.48 31.76,7.12 31.28,5.92C30.799,4.7 30.139,3.66 29.318,2.76C28.478,1.88 27.517,1.2 26.417,0.72C25.316,0.24 24.135,0 22.874,0C21.313,0 19.952,0.4 18.792,1.18C17.631,1.96 16.71,3 16.01,4.28C15.33,3 14.409,1.98 13.248,1.18C12.088,0.38 10.727,0 9.146,0C7.885,0 6.704,0.24 5.603,0.72C4.503,1.2 3.542,1.88 2.702,2.76C1.861,3.64 1.201,4.7 0.72,5.92C0.24,7.14 0,8.48 0,9.96C0,12.18 0.58,14.4 1.761,16.6C2.942,18.8 4.603,20.92 6.744,23C8.886,25.08 11.407,27.04 14.309,28.92C14.589,29.1 14.889,29.28 15.209,29.42C15.51,29.58 15.79,29.64 16.01,29.64Z" fill="#FFFFFF"/>
</svg>
