<svg width="40" height="36" viewBox="0 0 40 36" fill="none" xmlns="http://www.w3.org/2000/svg" xmlns:xlink="http://www.w3.org/1999/xlink">
<path d="M29.886,9.2L34.666,13.4L34.666,4.98C34.666,4.62 34.566,4.34 34.346,4.12C34.126,3.9 33.846,3.8 33.486,3.8L31.046,3.8C30.706,3.8 30.406,3.9 30.186,4.12C29.966,4.34 29.866,4.62 29.866,4.98L29.866,9.2L29.886,9.2ZM0.666,16.64C0.666,17.04 0.806,17.38 1.066,17.62C1.326,17.86 1.666,18 2.086,18C2.306,18 2.506,17.96 2.666,17.9C2.826,17.84 2.986,17.74 3.146,17.62L19.426,3.98C19.606,3.82 19.786,3.74 19.986,3.74C20.186,3.74 20.386,3.82 20.566,3.98L36.846,17.62C36.986,17.74 37.146,17.84 37.326,17.9C37.506,17.96 37.686,18 37.906,18C38.306,18 38.646,17.88 38.926,17.62C39.186,17.38 39.326,17.04 39.326,16.64C39.326,16.16 39.106,15.76 38.686,15.4L22.106,1.48C21.466,0.94 20.766,0.66 20.006,0.66C19.246,0.66 18.546,0.94 17.906,1.48L1.326,15.4C0.906,15.74 0.686,16.16 0.686,16.64L0.666,16.64ZM18.606,21.02L18.606,18.38L19.666,17.5C19.886,17.32 20.106,17.32 20.326,17.5L21.386,18.38L21.386,21.02C21.386,21.24 21.266,21.36 21.046,21.36L18.946,21.36C18.726,21.36 18.606,21.24 18.606,21.02ZM15.786,22.48C15.786,23.02 15.946,23.42 16.246,23.72C16.546,24 16.986,24.14 17.546,24.14L22.466,24.14C23.026,24.14 23.466,24 23.766,23.72C24.066,23.44 24.226,23.02 24.226,22.48L24.226,17.08L21.026,14.4C20.706,14.12 20.366,14 20.006,13.98C19.646,13.98 19.306,14.12 18.986,14.4L15.786,17.08L15.786,22.48ZM13.446,25.56L13.446,15.94L19.466,10.88C19.626,10.76 19.806,10.7 20.006,10.68C20.206,10.68 20.386,10.74 20.546,10.88L26.566,15.94L26.566,25.56C26.566,26.18 26.246,26.5 25.626,26.5L14.366,26.5C13.746,26.5 13.446,26.18 13.446,25.56ZM10.566,27.1C10.566,27.84 10.766,28.4 11.166,28.78C11.566,29.16 12.186,29.34 12.986,29.34L27.026,29.34C27.826,29.34 28.426,29.16 28.826,28.78C29.246,28.4 29.446,27.84 29.446,27.1L29.446,14.54L21.126,7.56C20.766,7.28 20.386,7.12 19.986,7.12C19.586,7.12 19.206,7.26 18.866,7.56L10.546,14.54L10.546,27.1L10.566,27.1ZM5.326,30.72C5.326,31.92 5.666,32.86 6.366,33.52C7.066,34.2 8.026,34.54 9.286,34.54L30.726,34.54C31.966,34.54 32.946,34.2 33.626,33.52C34.326,32.84 34.666,31.92 34.666,30.72L34.666,13L31.786,12.9L31.786,29.98C31.786,30.54 31.646,30.98 31.366,31.26C31.086,31.54 30.666,31.68 30.086,31.68L9.926,31.68C9.346,31.68 8.926,31.54 8.646,31.26C8.366,30.98 8.226,30.56 8.226,29.98L8.226,12.76L5.346,12.86L5.346,30.72L5.326,30.72Z" fill="#000000" fill-opacity="0.25"/>
</svg>
