<svg width="480" height="204" viewBox="0 0 480 204" fill="none" xmlns="http://www.w3.org/2000/svg" xmlns:xlink="http://www.w3.org/1999/xlink">
<path d="M130.113,23.909C122.711,15.809 114.219,9.794 104.636,5.876C95.053,1.959 84.815,0 73.954,0C59.712,0 47.028,2.938 35.886,8.799C24.745,14.675 15.972,22.743 9.583,32.987C3.194,43.231 0,55.015 0,68.306L0,68.586C0,80.882 2.805,91.903 8.446,101.619C14.055,111.366 21.815,119.03 31.726,124.579C41.636,130.129 52.98,132.912 65.758,132.912C77.445,132.912 87.76,130.658 96.704,126.15C105.649,121.641 112.77,115.625 118.068,108.117C118.672,107.258 119.246,106.39 119.79,105.513C119.574,113.879 118.722,121.889 117.242,129.523C115.497,138.446 112.801,146.374 109.155,153.291C105.508,160.209 100.725,165.65 94.85,169.614C88.976,173.578 81.823,175.552 73.424,175.552C68.126,175.552 63.327,174.791 59.042,173.236C54.757,171.681 51.032,169.505 47.885,166.676C44.737,163.862 42.197,160.489 40.281,156.572C39.455,155.297 38.66,154.302 37.881,153.571C37.117,152.841 36.214,152.343 35.216,152.063C34.219,151.799 32.941,151.659 31.383,151.659L11.656,151.659C9.645,151.659 8.072,152.048 6.934,152.825C5.781,153.602 5.064,154.675 4.737,156.043C4.41,157.395 4.659,159.043 5.485,160.955C8.492,169.521 13.198,177.013 19.587,183.434C25.976,189.854 33.736,194.891 42.867,198.528C51.998,202.182 62.049,204 73.004,204C89.895,204 104.34,199.849 116.354,191.564C128.352,183.278 137.577,171.339 144.013,155.763C150.448,140.187 153.674,121.564 153.674,99.878L153.674,99.598C153.674,82.296 151.601,67.389 147.441,54.859C143.28,42.33 137.515,32.023 130.113,23.909ZM40.062,47.149C43.568,41.319 48.321,36.718 54.305,33.345C60.288,29.971 66.849,28.292 74.235,28.292C81.621,28.292 88.29,30.002 94.227,33.422C100.164,36.827 104.854,41.475 108.329,47.351C111.804,53.227 113.533,59.911 113.533,67.373L113.533,67.513C113.533,74.881 111.804,81.426 108.329,87.115C104.854,92.805 100.133,97.266 94.149,100.5C88.181,103.733 81.434,105.35 73.954,105.35C66.475,105.35 59.759,103.718 53.822,100.438C47.9,97.158 43.241,92.65 39.86,86.913C36.478,81.177 34.796,74.586 34.796,67.109L34.796,66.829C34.796,59.538 36.541,52.978 40.062,47.149ZM173.384,51.517C173.384,57.067 175.3,61.761 179.134,65.585C182.967,69.41 187.533,71.322 193.096,71.322C198.658,71.322 203.364,69.41 207.198,65.585C211.03,61.761 212.948,56.973 212.948,51.517C212.948,46.061 211.03,41.413 207.198,37.588C203.364,33.764 198.565,31.852 193.096,31.852C187.626,31.852 182.967,33.764 179.134,37.588C175.3,41.413 173.384,45.967 173.384,51.517ZM173.384,151.924C173.384,157.489 175.3,162.152 179.134,165.93C182.967,169.707 187.533,171.604 193.096,171.604C198.658,171.604 203.364,169.707 207.198,165.93C211.03,162.152 212.948,157.473 212.948,151.924C212.948,146.374 211.03,141.695 207.198,137.917C203.364,134.14 198.565,132.243 193.096,132.243C187.626,132.243 182.967,134.14 179.134,137.917C175.3,141.695 173.384,146.358 173.384,151.924ZM234.392,161.841C233.254,161.344 232.414,160.52 231.852,159.385C231.306,158.251 231.026,156.774 231.026,154.939L231.026,139.083C231.026,137.264 231.12,135.757 231.306,134.575C231.494,133.394 231.806,132.259 232.272,131.155C232.724,130.067 233.458,128.746 234.47,127.191C240.672,117.351 246.904,107.511 253.168,97.686C257.73,90.502 262.302,83.318 266.868,76.14L266.906,76.08C268.582,73.446 270.256,70.813 271.93,68.181C278.178,58.341 284.412,48.501 290.63,38.677C295.144,31.514 299.666,24.352 304.184,17.196L304.204,17.163L304.288,17.031C305.942,14.41 307.598,11.79 309.25,9.172C310.154,7.617 311.104,6.467 312.054,5.69C313.02,4.912 314.064,4.353 315.202,3.98C316.34,3.622 317.82,3.436 319.66,3.436L355.686,3.436C357.508,3.436 358.974,3.715 360.064,4.259C361.156,4.804 361.98,5.627 362.526,6.716C363.072,7.804 363.352,9.312 363.352,11.224L363.352,134.047L382.114,134.047C384.03,134.047 385.542,134.342 386.632,134.933C387.722,135.523 388.548,136.347 389.094,137.389C389.64,138.43 389.92,139.923 389.92,141.835L389.92,154.955C389.92,156.774 389.64,158.235 389.094,159.323C388.548,160.411 387.722,161.235 386.632,161.779C385.542,162.323 384.03,162.603 382.114,162.603L363.352,162.603L363.352,192.792C363.352,194.704 363.072,196.181 362.526,197.238C361.98,198.279 361.156,199.103 360.064,199.694C358.974,200.284 357.508,200.58 355.686,200.58L337.33,200.58C335.6,200.58 334.182,200.3 333.092,199.756C332,199.212 331.174,198.388 330.63,197.3C330.084,196.212 329.804,194.751 329.804,192.932L329.804,162.603L238.864,162.603C237.042,162.603 235.56,162.354 234.408,161.857L234.392,161.841ZM330.192,28.557C324.63,37.293 319.052,46.076 313.488,54.859C307.926,63.658 302.332,72.456 296.706,81.302C291.096,90.131 285.502,98.945 279.924,107.744C274.362,116.543 268.736,125.295 263.08,134.047L330.192,134.047L330.192,28.557ZM446.062,197.301C446.622,198.39 447.464,199.213 448.602,199.758L448.57,199.758C449.708,200.302 451.156,200.582 452.886,200.582L472.194,200.582C474.016,200.582 475.48,200.286 476.572,199.695C477.678,199.105 478.52,198.281 479.112,197.239C479.704,196.182 480,194.705 480,192.793L480,11.209C480,9.297 479.704,7.805 479.112,6.764C478.504,5.722 477.662,4.898 476.572,4.307C475.48,3.717 474.016,3.421 472.194,3.421L451.656,3.421C449.738,3.421 448.18,3.515 446.996,3.701C445.812,3.888 444.69,4.23 443.646,4.727C442.602,5.225 441.308,6.033 439.75,7.121L399.08,35.942C397.522,36.952 396.37,37.916 395.59,38.818C394.826,39.719 394.282,40.776 393.954,41.958C393.626,43.139 393.47,44.601 393.47,46.326L393.47,61.763C393.47,63.675 393.876,65.089 394.702,65.991C395.528,66.908 396.556,67.421 397.788,67.561C399.018,67.701 400.404,67.281 401.964,66.271L445.236,36.486L445.236,192.933C445.236,194.752 445.5,196.213 446.062,197.301Z" clip-rule="evenodd" fill-rule="evenodd" fill="#FFFFFF"/>
</svg>
