<svg width="28" height="36" viewBox="0 0 28 36" fill="none" xmlns="http://www.w3.org/2000/svg" xmlns:xlink="http://www.w3.org/1999/xlink">
<path d="M4.64,34.422C5.22,34.422 5.86,34.302 6.54,34.062C7.22,33.822 7.88,33.462 8.48,32.942C9.1,32.442 9.6,31.762 9.98,30.942C10.36,30.122 10.56,29.122 10.56,27.962L10.56,13.162C10.56,12.802 10.6,12.562 10.68,12.462C10.76,12.362 10.96,12.282 11.28,12.222L24.18,9.562C24.54,9.482 24.78,9.482 24.9,9.562C25.02,9.642 25.08,9.842 25.08,10.142L25.18,20.062C25.18,20.782 24.84,21.222 24.18,21.362L21.82,21.882C18.58,22.582 16.96,24.162 16.96,26.622C16.96,27.442 17.16,28.182 17.58,28.822C17.98,29.462 18.54,29.982 19.26,30.342C19.96,30.702 20.78,30.902 21.68,30.902C22.28,30.902 22.9,30.782 23.58,30.562C24.26,30.342 24.9,29.982 25.5,29.482C26.1,28.982 26.6,28.342 26.98,27.522C27.36,26.722 27.56,25.722 27.56,24.562L27.56,2.562C27.56,1.762 27.36,1.202 26.94,0.922C26.52,0.642 25.86,0.582 24.96,0.762L9.76,3.902C8.6,4.142 8.02,4.762 8.02,5.762L8.12,23.642C8.12,24.322 7.84,24.722 7.26,24.822L4.78,25.342C3.18,25.682 1.98,26.262 1.18,27.082C0.4,27.902 0,28.922 0,30.182C0,31.442 0.44,32.462 1.32,33.242C2.2,34.042 3.3,34.442 4.66,34.442L4.64,34.422Z" fill="#000000" fill-opacity="0.25"/>
</svg>
