<svg width="60" height="48" viewBox="0 0 60 48" fill="none" xmlns="http://www.w3.org/2000/svg" xmlns:xlink="http://www.w3.org/1999/xlink">
<g opacity="0.5">
<path d="M40.69,34.941C40.081,34.535 39.725,33.993 39.624,33.316C39.539,32.639 39.734,31.937 40.208,31.209C40.902,30.193 41.443,29.042 41.833,27.756C42.222,26.452 42.417,25.09 42.417,23.668C42.417,22.246 42.222,20.883 41.833,19.58C41.46,18.277 40.919,17.126 40.208,16.127C39.717,15.416 39.522,14.722 39.624,14.045C39.725,13.351 40.081,12.801 40.69,12.395C41.232,12.039 41.816,11.921 42.442,12.039C43.068,12.158 43.568,12.488 43.94,13.029C44.973,14.4 45.777,16.017 46.352,17.879C46.928,19.724 47.216,21.654 47.216,23.668C47.216,25.682 46.928,27.612 46.352,29.457C45.777,31.302 44.973,32.91 43.94,34.281C43.568,34.84 43.068,35.178 42.442,35.297C41.816,35.398 41.232,35.28 40.69,34.941ZM50.821,41.721C50.229,41.348 49.89,40.832 49.805,40.172C49.721,39.495 49.899,38.826 50.339,38.166C51.676,36.169 52.717,33.926 53.462,31.438C54.206,28.949 54.579,26.359 54.579,23.668C54.579,20.977 54.206,18.387 53.462,15.898C52.734,13.393 51.693,11.15 50.339,9.17C49.882,8.51 49.695,7.85 49.78,7.189C49.882,6.512 50.229,5.988 50.821,5.615C51.397,5.243 51.997,5.124 52.624,5.26C53.267,5.378 53.783,5.725 54.173,6.301C55.831,8.62 57.109,11.294 58.007,14.324C58.921,17.337 59.378,20.452 59.378,23.668C59.378,26.884 58.921,29.999 58.007,33.012C57.093,36.008 55.815,38.682 54.173,41.035C53.783,41.611 53.267,41.958 52.624,42.076C51.997,42.195 51.397,42.076 50.821,41.721Z" fill="#32ADE6"/>
</g>
<path d="M28.35,46.418C27.706,46.418 27.097,46.274 26.521,45.986C25.946,45.716 25.345,45.284 24.719,44.691L14.105,34.637C13.936,34.501 13.742,34.434 13.521,34.434L6.311,34.434C4.465,34.434 3.044,33.926 2.045,32.91C1.063,31.895 0.572,30.397 0.572,28.416L0.572,18.996C0.572,17.033 1.063,15.543 2.045,14.527C3.044,13.512 4.465,13.004 6.311,13.004L13.521,13.004C13.742,13.004 13.936,12.928 14.105,12.775L24.719,2.848C25.43,2.188 26.047,1.714 26.572,1.426C27.097,1.121 27.672,0.969 28.299,0.969C29.281,0.969 30.076,1.299 30.685,1.959C31.312,2.619 31.625,3.423 31.625,4.371L31.625,43.143C31.625,44.074 31.32,44.852 30.711,45.479C30.101,46.105 29.314,46.418 28.35,46.418Z" fill="#32ADE6"/>
</svg>
