<svg width="58" height="56" viewBox="0 0 58 56" fill="none" xmlns="http://www.w3.org/2000/svg" xmlns:xlink="http://www.w3.org/1999/xlink">
<g opacity="0.5">
<path d="M28,9.742C27.289,9.742 26.688,9.488 26.197,8.98C25.706,8.473 25.461,7.872 25.461,7.178L25.461,1.896C25.461,1.202 25.706,0.61 26.197,0.119C26.688,-0.389 27.289,-0.643 28,-0.643C28.677,-0.643 29.261,-0.389 29.752,0.119C30.26,0.61 30.514,1.202 30.514,1.896L30.514,7.178C30.514,7.872 30.26,8.473 29.752,8.98C29.261,9.488 28.677,9.742 28,9.742ZM40.644,15.023C40.154,14.549 39.908,13.957 39.908,13.246C39.908,12.535 40.154,11.934 40.644,11.443L44.402,7.686C44.876,7.195 45.469,6.949 46.18,6.949C46.891,6.932 47.492,7.169 47.982,7.66C48.473,8.151 48.719,8.752 48.719,9.463C48.719,10.174 48.473,10.775 47.982,11.266L44.25,15.023C43.759,15.531 43.158,15.785 42.447,15.785C41.736,15.768 41.135,15.514 40.644,15.023ZM45.875,27.668C45.875,26.974 46.12,26.381 46.611,25.891C47.119,25.383 47.728,25.129 48.439,25.129L53.695,25.129C54.389,25.129 54.982,25.383 55.473,25.891C55.98,26.381 56.234,26.974 56.234,27.668C56.234,28.362 55.98,28.954 55.473,29.445C54.982,29.936 54.389,30.182 53.695,30.182L48.439,30.182C47.728,30.182 47.119,29.936 46.611,29.445C46.12,28.954 45.875,28.362 45.875,27.668ZM40.644,40.312C41.118,39.839 41.711,39.602 42.422,39.602C43.133,39.602 43.734,39.839 44.225,40.312L47.982,44.07C48.473,44.544 48.719,45.137 48.719,45.848C48.719,46.559 48.482,47.159 48.008,47.65C47.517,48.124 46.916,48.361 46.205,48.361C45.494,48.378 44.902,48.158 44.428,47.701L40.644,43.893C40.154,43.419 39.908,42.835 39.908,42.141C39.908,41.43 40.154,40.82 40.644,40.312ZM28,45.594C28.677,45.594 29.261,45.839 29.752,46.33C30.26,46.838 30.514,47.439 30.514,48.133L30.514,53.414C30.514,54.108 30.26,54.7 29.752,55.191C29.261,55.699 28.677,55.953 28,55.953C27.289,55.953 26.688,55.699 26.197,55.191C25.706,54.7 25.461,54.108 25.461,53.414L25.461,48.133C25.461,47.439 25.706,46.838 26.197,46.33C26.688,45.839 27.289,45.594 28,45.594ZM15.33,40.312C15.804,40.82 16.041,41.43 16.041,42.141C16.041,42.835 15.796,43.419 15.305,43.893L11.547,47.676C11.073,48.133 10.472,48.353 9.744,48.336C9.033,48.336 8.432,48.099 7.941,47.625C7.484,47.134 7.256,46.533 7.256,45.822C7.256,45.111 7.501,44.519 7.992,44.045L11.725,40.312C12.215,39.839 12.816,39.602 13.527,39.602C14.238,39.602 14.839,39.839 15.33,40.312ZM10.1,27.668C10.1,28.362 9.846,28.954 9.338,29.445C8.83,29.936 8.229,30.182 7.535,30.182L2.254,30.182C1.577,30.182 0.984,29.936 0.477,29.445C-0.014,28.954 -0.26,28.362 -0.26,27.668C-0.26,26.974 -0.014,26.381 0.477,25.891C0.984,25.383 1.577,25.129 2.254,25.129L7.535,25.129C8.229,25.129 8.83,25.383 9.338,25.891C9.846,26.381 10.1,26.974 10.1,27.668ZM15.305,15.023C14.814,15.514 14.213,15.76 13.502,15.76C12.808,15.76 12.215,15.514 11.725,15.023L7.992,11.24C7.518,10.766 7.281,10.174 7.281,9.463C7.281,8.752 7.527,8.151 8.018,7.66C8.508,7.169 9.109,6.932 9.82,6.949C10.531,6.966 11.124,7.212 11.598,7.686L15.33,11.443C15.804,11.917 16.041,12.518 16.041,13.246C16.041,13.957 15.796,14.549 15.305,15.023Z" fill="#FFCC00"/>
</g>
<path d="M27.975,40.922C26.146,40.922 24.428,40.583 22.82,39.906C21.212,39.212 19.799,38.264 18.58,37.062C17.378,35.844 16.43,34.43 15.736,32.822C15.059,31.214 14.721,29.496 14.721,27.668C14.721,25.823 15.059,24.105 15.736,22.514C16.43,20.906 17.378,19.501 18.58,18.299C19.799,17.08 21.212,16.124 22.82,15.43C24.428,14.736 26.146,14.389 27.975,14.389C29.803,14.389 31.521,14.736 33.129,15.43C34.737,16.124 36.142,17.08 37.344,18.299C38.563,19.501 39.511,20.906 40.188,22.514C40.882,24.105 41.229,25.823 41.229,27.668C41.229,29.496 40.882,31.214 40.188,32.822C39.511,34.43 38.563,35.844 37.344,37.062C36.142,38.264 34.737,39.212 33.129,39.906C31.521,40.583 29.803,40.922 27.975,40.922Z" fill="#FFCC00"/>
</svg>
