<svg width="14" height="22" viewBox="0 0 14 22" fill="none" xmlns="http://www.w3.org/2000/svg" xmlns:xlink="http://www.w3.org/1999/xlink">
<path d="M7.94,8.396L7.94,3.532L10.933,5.985L7.94,8.396ZM7.94,18.477L7.94,13.613L10.933,16.024L7.94,18.477ZM5.425,20.576C5.425,21.948 7.15,22.468 8.273,21.512L13.22,17.313C13.677,16.939 13.885,16.44 13.885,15.941C13.885,15.442 13.656,14.943 13.199,14.59L8.73,10.994L13.199,7.398C13.656,7.024 13.864,6.525 13.885,6.047C13.885,5.569 13.677,5.07 13.22,4.675L8.273,0.498C7.129,-0.479 5.425,0.061 5.425,1.433L5.425,8.521L2.079,5.756C1.829,5.548 1.538,5.445 1.226,5.445C0.54,5.445 0,5.985 0,6.671C0,7.045 0.145,7.419 0.499,7.689L4.635,11.015L0.499,14.341C0.145,14.611 0,14.985 0,15.359C0,16.107 0.561,16.586 1.226,16.586C1.517,16.586 1.829,16.482 2.079,16.274L5.425,13.509L5.425,20.576Z" clip-rule="evenodd" fill-rule="evenodd" fill="#FFFFFF"/>
</svg>
