<svg width="36" height="26" viewBox="0 0 36 26" fill="none" xmlns="http://www.w3.org/2000/svg" xmlns:xlink="http://www.w3.org/1999/xlink">
<path d="M17.143,4.604C22.117,4.604 26.901,6.449 30.506,9.756C30.777,10.011 31.211,10.008 31.479,9.748L34.074,7.221C34.209,7.09 34.284,6.912 34.283,6.726C34.282,6.541 34.205,6.364 34.068,6.234C24.606,-2.516 9.678,-2.516 0.216,6.234C0.079,6.364 0.001,6.541 0,6.726C-0.001,6.912 0.074,7.09 0.209,7.221L2.805,9.748C3.072,10.008 3.507,10.011 3.778,9.756C7.383,6.448 12.168,4.604 17.143,4.604ZM17.136,13.045C19.851,13.045 22.468,14.068 24.481,15.916C24.753,16.179 25.181,16.173 25.447,15.903L28.021,13.265C28.157,13.126 28.232,12.939 28.23,12.744C28.228,12.549 28.149,12.362 28.011,12.227C21.883,6.445 12.394,6.445 6.266,12.227C6.128,12.362 6.049,12.549 6.047,12.744C6.045,12.939 6.121,13.127 6.256,13.265L8.83,15.903C9.096,16.173 9.524,16.179 9.796,15.916C11.807,14.069 14.423,13.046 17.136,13.045ZM22.185,18.632C22.189,18.843 22.114,19.046 21.98,19.193L17.627,24.103C17.499,24.247 17.325,24.328 17.143,24.328C16.962,24.328 16.788,24.247 16.66,24.103L12.306,19.193C12.172,19.046 12.098,18.842 12.102,18.632C12.106,18.421 12.187,18.221 12.327,18.08C15.107,15.452 19.179,15.452 21.96,18.08C22.099,18.222 22.181,18.421 22.185,18.632Z" clip-rule="evenodd" fill-rule="evenodd" fill="#FFFFFF"/>
</svg>
